<?xml version="1.0" encoding="UTF-8" standalone="no"?>
<!DOCTYPE svg PUBLIC "-//W3C//DTD SVG 1.1//EN" "http://www.w3.org/Graphics/SVG/1.1/DTD/svg11.dtd">
<svg width="100%" height="100%" viewBox="0 0 2337 599" version="1.1" xmlns="http://www.w3.org/2000/svg"
     xml:space="preserve"
     style="fill-rule:evenodd;clip-rule:evenodd;stroke-linejoin:round;stroke-miterlimit:2;">
    <g transform="matrix(0.930731,0,0,0.930731,-611.161,-981.809)">
        <g transform="matrix(0,-4.16667,-4.16667,0,3590.69,2251.9)">
            <ellipse cx="281.111" cy="580.655" rx="1.535" ry="1.526" style="fill:rgb(35,31,32);"/>
        </g>
        <g transform="matrix(4.16667,0,0,4.16667,0,-735.571)">
            <path d="M402.292,506.855C401.952,492.269 389.636,475.519 357.925,465.983C355.925,465.05 354.44,464.94 353.937,463.573C353.503,462.401 354.3,460.667 355.651,457.042C356.624,454.089 358.854,447.132 356.823,442.417C355.226,438.69 349.394,432.269 333.366,430.573C317.808,428.94 307.377,429.82 298.214,431.545C294.617,432.223 291.407,432.773 289.985,433.319C289.442,433.528 289.174,433.703 289.262,434.091C289.419,434.789 290.183,434.577 291.171,434.378C300.269,432.487 317.487,430.456 332.8,432.831C347.003,435.038 351.581,440.522 353.237,443.8C354.737,446.745 354.878,450.761 353.37,456.038C352.933,457.573 351.722,461.265 351.175,463.269C350.269,466.565 352.237,466.616 355.979,467.964C385.12,478.44 392.249,492.761 393.714,506.543C396.151,529.488 371.753,552.536 368.026,555.204C333.683,579.792 288.062,583.003 267.806,579.69C241.535,575.401 240.927,563.87 240.738,562.523C242.667,561.699 244.583,560.746 246.328,559.668C252.47,555.825 254.353,551.588 254.857,549.553L254.853,549.553C255.072,548.816 255.189,548.105 255.16,547.41C255.134,546.234 254.74,545.219 253.992,544.395C253.234,543.566 252.287,543.176 251.169,543.191C249.613,543.23 247.949,543.855 246.205,545.047C244.486,546.234 242.705,547.918 240.96,550.061C239.441,551.975 238.24,553.966 237.398,555.997C236.55,558.043 236.148,559.883 236.183,561.48C233.675,562.793 227.277,563.722 224.662,563.776C221.908,563.808 217.98,562.645 217.925,562.621C215.244,561.91 212.074,560.617 208.523,558.746C204.996,556.888 200.748,554.286 195.929,551.021C202.115,546.035 209.019,536.754 216.47,523.426L221.857,514.113C226.085,507.187 229.994,502.047 233.486,498.815C236.949,495.608 240.054,494.261 242.703,494.815C243.705,495.042 244.408,495.628 244.863,496.628C245.31,497.624 245.392,498.831 245.107,500.207C244.789,501.695 243.619,504.285 241.613,507.883C239.623,511.48 236.871,515.996 233.431,521.32L233.308,521.52L238.554,521.102C241.39,516.645 243.517,512.941 244.97,510.059C246.425,507.168 247.361,504.766 247.742,502.918C248.291,500.34 248.144,498.104 247.326,496.269C246.488,494.433 245.121,493.292 243.248,492.894C240.32,492.272 236.445,493.651 231.724,496.964C227.039,500.285 222.55,504.926 218.386,510.777C215.24,515.273 211.146,522.145 206.236,531.176C201.33,540.207 197.292,546.473 194.25,549.803C190.781,547.609 187.3,545.801 184.029,544.418C180.751,543.035 177.583,542.02 174.607,541.387C170.029,540.41 166.169,540.418 163.152,541.395C160.119,542.371 158.283,544.199 157.738,546.832C157.242,549.153 158.042,551.373 160.095,553.458C162.142,555.513 165.017,556.942 168.66,557.7C172.759,558.578 176.949,558.645 181.111,557.911C185.255,557.169 189.261,555.669 193.013,553.454C196.64,556.329 200.279,558.824 203.689,560.879C207.089,562.926 210.341,564.581 213.367,565.823C214.857,566.464 219.636,567.628 224.845,567.112C225.388,567.073 226.013,566.964 226.662,566.847L226.644,566.87C226.644,566.87 226.777,566.843 226.955,566.8C228.22,566.565 229.626,566.222 231.068,565.819C232.728,565.37 234.742,564.772 236.871,564.019C237.23,565.159 236.888,576.589 266.066,582.022C296.026,587.597 337.026,581.198 368.151,561.66C378.702,555.036 402.987,537.012 402.292,506.855M180.353,556.118C176.697,556.771 173.076,556.716 169.566,555.997C166.115,555.263 163.437,554.099 161.65,552.509C159.863,550.943 159.154,549.224 159.533,547.379C159.921,545.52 161.238,544.215 163.429,543.496C165.648,542.777 168.527,542.797 171.976,543.52C174.894,544.129 177.974,545.191 181.126,546.652C184.238,548.09 187.488,549.982 190.761,552.229C187.443,554.161 183.959,555.485 180.353,556.118M244.824,549.255C246.673,546.414 248.486,544.973 250.187,544.934C250.839,544.91 251.322,545.105 251.669,545.512C252.023,545.922 252.208,546.551 252.234,547.375L252.234,547.41C252.265,549.404 251.197,551.592 249.062,553.903C246.976,556.2 244.126,558.195 240.646,559.875C241.625,555.622 243.019,552.029 244.824,549.255Z" style="fill:rgb(35,31,32);fill-rule:nonzero;"/>
        </g>
    </g>
    <g transform="matrix(1.50657,0,0,1.50657,-62.4546,-2443.18)">
        <g transform="matrix(4.16667,0,0,4.16667,0,173.063)">
            <path d="M176.336,411.639L176.319,410.701C177.167,410.701 177.693,410.629 177.9,410.483C178.107,410.339 178.211,409.911 178.211,409.201L178.211,390.05L176.319,389.389L176.319,388.639C177.302,388.436 178.201,388.185 179.018,387.885C179.834,387.586 180.574,387.232 181.236,386.826L181.961,386.826L181.961,409.071C181.961,409.856 182.054,410.325 182.241,410.476C182.428,410.626 182.873,410.701 183.577,410.701L183.961,410.701L183.961,411.639C183.427,411.607 182.845,411.583 182.215,411.567C181.584,411.552 180.9,411.543 180.164,411.543C179.47,411.543 178.803,411.552 178.162,411.567C177.521,411.583 176.912,411.607 176.336,411.639Z" style="fill:rgb(35,31,32);fill-rule:nonzero;"/>
        </g>
        <g transform="matrix(4.16667,0,0,4.16667,0,214.469)">
            <path d="M203.452,397.326L204.004,397.946C203.092,399.323 202.107,400.355 201.05,401.044C199.993,401.731 198.847,402.076 197.613,402.076C195.788,402.076 194.282,401.359 193.096,399.924C191.91,398.488 191.317,396.658 191.317,394.433C191.317,392.176 192.028,390.281 193.452,388.749C194.875,387.218 196.613,386.451 198.665,386.451C200.147,386.451 201.355,386.896 202.29,387.786C203.224,388.677 203.692,389.824 203.692,391.229C203.692,391.712 203.627,392.013 203.5,392.13C203.372,392.248 202.977,392.307 202.316,392.307L194.442,392.339L194.442,392.389C194.442,394.408 194.923,396.027 195.887,397.247C196.85,398.467 198.125,399.076 199.709,399.076C200.405,399.076 201.055,398.934 201.661,398.646C202.265,398.36 202.862,397.92 203.452,397.326M194.539,391.139L198.37,391.139C199.27,391.139 199.82,391.075 200.019,390.947C200.217,390.819 200.317,390.574 200.317,390.212C200.317,389.392 200.121,388.758 199.729,388.311C199.337,387.863 198.788,387.639 198.08,387.639C197.178,387.639 196.43,387.935 195.834,388.526C195.239,389.118 194.806,389.988 194.539,391.139Z" style="fill:rgb(35,31,32);fill-rule:nonzero;"/>
        </g>
        <g transform="matrix(4.16667,0,0,4.16667,0,174.886)">
            <path d="M231.431,410.419L230.064,411.428L229.559,411.237C229.6,410.872 229.631,410.472 229.653,410.036C229.673,409.601 229.684,408.953 229.684,408.093L229.684,389.642L227.809,388.951L227.809,388.201C228.881,387.967 229.822,387.699 230.631,387.399C231.441,387.101 232.135,386.764 232.714,386.389L233.372,386.389L233.372,397.885C234.124,397.245 234.895,396.773 235.686,396.47C236.477,396.166 237.324,396.014 238.227,396.014C240.001,396.014 241.459,396.664 242.599,397.965C243.739,399.266 244.309,400.948 244.309,403.012C244.309,404.108 244.131,405.135 243.777,406.092C243.422,407.049 242.896,407.936 242.198,408.752C241.36,409.72 240.433,410.442 239.417,410.921C238.402,411.399 237.282,411.639 236.057,411.639C235.175,411.639 234.342,411.534 233.558,411.326C232.774,411.117 232.065,410.815 231.431,410.419M233.372,408.093C233.791,408.836 234.301,409.415 234.903,409.829C235.504,410.244 236.128,410.451 236.773,410.451C237.879,410.451 238.777,409.935 239.464,408.9C240.152,407.867 240.497,406.488 240.497,404.765C240.497,402.815 240.047,401.214 239.15,399.959C238.252,398.704 237.127,398.076 235.774,398.076C235.354,398.076 234.943,398.149 234.541,398.295C234.137,398.44 233.748,398.664 233.372,398.965L233.372,408.093Z" style="fill:rgb(35,31,32);fill-rule:nonzero;"/>
        </g>
        <g transform="matrix(4.16667,0,0,4.16667,0,214.469)">
            <path d="M265.279,397.326L265.832,397.946C264.92,399.323 263.935,400.355 262.878,401.044C261.82,401.731 260.675,402.076 259.44,402.076C257.615,402.076 256.109,401.359 254.924,399.924C253.737,398.488 253.145,396.658 253.145,394.433C253.145,392.176 253.855,390.281 255.279,388.749C256.703,387.218 258.44,386.451 260.492,386.451C261.975,386.451 263.183,386.896 264.117,387.786C265.052,388.677 265.52,389.824 265.52,391.229C265.52,391.712 265.455,392.013 265.327,392.13C265.199,392.248 264.805,392.307 264.144,392.307L256.27,392.339L256.27,392.389C256.27,394.408 256.751,396.027 257.715,397.247C258.678,398.467 259.952,399.076 261.537,399.076C262.232,399.076 262.883,398.934 263.488,398.646C264.093,398.36 264.689,397.92 265.279,397.326M256.366,391.139L260.197,391.139C261.098,391.139 261.647,391.075 261.847,390.947C262.045,390.819 262.145,390.574 262.145,390.212C262.145,389.392 261.948,388.758 261.557,388.311C261.165,387.863 260.615,387.639 259.907,387.639C259.006,387.639 258.258,387.935 257.662,388.526C257.066,389.118 256.634,389.988 256.366,391.139Z" style="fill:rgb(35,31,32);fill-rule:nonzero;"/>
        </g>
        <g transform="matrix(4.16667,0,0,4.16667,0,213.428)">
            <path d="M275.176,401.951L275.16,401.014C276.029,400.992 276.561,400.912 276.757,400.772C276.953,400.633 277.051,400.214 277.051,399.515L277.051,390.082L275.16,389.389L275.16,388.639C276.195,388.414 277.122,388.152 277.938,387.853C278.754,387.554 279.467,387.211 280.077,386.826L280.801,386.826L280.801,389.252C282.041,388.347 283.053,387.716 283.84,387.36C284.627,387.005 285.371,386.826 286.072,386.826C287.505,386.826 288.537,387.229 289.167,388.031C289.798,388.834 290.114,390.168 290.114,392.033L290.114,399.288C290.114,400.116 290.201,400.611 290.376,400.772C290.551,400.934 290.952,401.014 291.578,401.014L291.864,401.014L291.864,401.951C291.065,401.92 290.363,401.895 289.756,401.88C289.149,401.864 288.633,401.855 288.208,401.855C287.813,401.855 287.313,401.864 286.707,401.88C286.099,401.895 285.381,401.92 284.551,401.951L284.551,401.014C285.304,401.014 285.784,400.949 285.991,400.82C286.198,400.691 286.301,400.315 286.301,399.691L286.301,392.517C286.301,391.255 286.13,390.388 285.789,389.913C285.447,389.438 284.853,389.201 284.007,389.201C283.541,389.201 283.041,389.302 282.509,389.502C281.978,389.703 281.409,390.004 280.801,390.404L280.801,399.385C280.801,400.181 280.894,400.651 281.081,400.796C281.267,400.941 281.84,401.014 282.801,401.014L282.801,401.951C282.416,401.92 281.984,401.895 281.503,401.88C281.023,401.864 280.494,401.855 279.917,401.855C278.935,401.855 278.045,401.864 277.25,401.88C276.455,401.895 275.763,401.92 275.176,401.951Z" style="fill:rgb(35,31,32);fill-rule:nonzero;"/>
        </g>
        <g transform="matrix(4.16667,0,0,4.16667,0,214.469)">
            <path d="M309.169,399.57C308.285,400.428 307.434,401.06 306.615,401.466C305.797,401.872 304.967,402.076 304.127,402.076C302.975,402.076 302.086,401.777 301.461,401.183C300.835,400.587 300.521,399.741 300.521,398.645C300.521,396.981 303.099,395.252 308.25,393.459L308.993,393.201L308.993,391.443C308.993,390.509 308.765,389.808 308.309,389.34C307.852,388.873 307.156,388.639 306.223,388.639C305.535,388.639 305.028,388.755 304.701,388.985C304.373,389.217 304.167,389.617 304.081,390.187C303.929,391.046 303.683,391.597 303.341,391.839C302.999,392.081 302.47,392.201 301.753,392.201C301.524,392.201 301.356,392.14 301.247,392.016C301.139,391.893 301.085,391.701 301.085,391.442C301.085,390.894 301.194,390.436 301.416,390.069C301.637,389.703 302.128,389.256 302.892,388.729C304.095,387.932 305.138,387.354 306.02,386.992C306.9,386.632 307.696,386.451 308.406,386.451C309.115,386.451 309.749,386.564 310.308,386.791C310.866,387.018 311.345,387.357 311.743,387.811C312.098,388.21 312.348,388.701 312.493,389.283C312.638,389.865 312.711,390.955 312.711,392.551L312.711,397.597C312.711,398.546 312.779,399.154 312.918,399.423C313.057,399.692 313.312,399.826 313.685,399.826C313.833,399.826 313.979,399.801 314.122,399.748C314.266,399.696 314.412,399.618 314.562,399.514L314.961,400.079C314.449,400.729 313.905,401.225 313.329,401.565C312.753,401.905 312.16,402.076 311.553,402.076C310.827,402.076 310.268,401.869 309.873,401.458C309.479,401.046 309.243,400.416 309.169,399.57M308.961,394.326C307.146,394.828 305.901,395.339 305.226,395.856C304.549,396.374 304.211,397.055 304.211,397.898C304.211,398.582 304.374,399.105 304.702,399.469C305.029,399.832 305.504,400.014 306.127,400.014C306.674,400.014 307.189,399.866 307.673,399.571C308.155,399.276 308.585,398.849 308.961,398.289L308.961,394.326Z" style="fill:rgb(35,31,32);fill-rule:nonzero;"/>
        </g>
        <g transform="matrix(4.16667,0,0,4.16667,0,201.188)">
            <path d="M333.085,391.889L329.216,391.889L329.216,400.783C329.216,401.364 329.385,401.85 329.724,402.24C330.062,402.631 330.468,402.826 330.94,402.826C331.209,402.826 331.494,402.773 331.795,402.666C332.096,402.559 332.451,402.383 332.859,402.139L333.278,402.674C332.663,403.559 332.003,404.212 331.296,404.633C330.589,405.053 329.794,405.264 328.91,405.264C327.691,405.264 326.822,404.899 326.305,404.171C325.787,403.442 325.528,402.179 325.528,400.379L325.528,391.889L323.653,391.889L323.653,391.225C325.087,390.325 326.32,389.305 327.355,388.163C328.39,387.022 328.923,386.451 328.956,386.451L328.988,386.451C329.074,386.494 329.134,386.556 329.167,386.636C329.199,386.716 329.216,386.842 329.216,387.013L329.216,390.139L333.085,390.139L333.085,391.889Z" style="fill:rgb(35,31,32);fill-rule:nonzero;"/>
        </g>
        <g transform="matrix(4.16667,0,0,4.16667,0,214.469)">
            <path d="M341.735,394.304C341.735,392.079 342.486,390.214 343.989,388.709C345.491,387.204 347.363,386.451 349.604,386.451C351.887,386.451 353.761,387.172 355.226,388.612C356.69,390.053 357.423,391.886 357.423,394.11C357.423,396.336 356.66,398.22 355.137,399.763C353.612,401.306 351.746,402.076 349.539,402.076C347.244,402.076 345.37,401.346 343.916,399.884C342.462,398.422 341.735,396.562 341.735,394.304M349.426,387.576C348.232,387.576 347.319,388.128 346.686,389.229C346.052,390.332 345.735,391.927 345.735,394.013C345.735,396.089 346.111,397.774 346.863,399.07C347.615,400.366 348.576,401.014 349.748,401.014C350.844,401.014 351.73,400.436 352.407,399.279C353.084,398.123 353.423,396.588 353.423,394.674C353.423,392.534 353.055,390.816 352.318,389.52C351.582,388.225 350.618,387.576 349.426,387.576Z" style="fill:rgb(35,31,32);fill-rule:nonzero;"/>
        </g>
        <g transform="matrix(4.16667,0,0,4.16667,0,213.428)">
            <path d="M365.544,401.951L365.527,401.014C366.396,400.992 366.929,400.912 367.125,400.772C367.32,400.633 367.419,400.214 367.419,399.515L367.419,390.082L365.527,389.389L365.527,388.639C366.563,388.414 367.489,388.152 368.306,387.853C369.122,387.554 369.835,387.211 370.444,386.826L371.169,386.826L371.169,389.252C372.408,388.347 373.421,387.716 374.208,387.36C374.995,387.005 375.738,386.826 376.439,386.826C377.873,386.826 378.904,387.229 379.535,388.031C380.166,388.834 380.481,390.168 380.481,392.033L380.481,399.288C380.481,400.116 380.568,400.611 380.744,400.772C380.919,400.934 381.319,401.014 381.945,401.014L382.231,401.014L382.231,401.951C381.433,401.92 380.73,401.895 380.124,401.88C379.517,401.864 379.001,401.855 378.575,401.855C378.181,401.855 377.681,401.864 377.074,401.88C376.467,401.895 375.749,401.92 374.919,401.951L374.919,401.014C375.672,401.014 376.151,400.949 376.358,400.82C376.565,400.691 376.669,400.315 376.669,399.691L376.669,392.517C376.669,391.255 376.498,390.388 376.156,389.913C375.814,389.438 375.221,389.201 374.375,389.201C373.908,389.201 373.408,389.302 372.877,389.502C372.346,389.703 371.776,390.004 371.169,390.404L371.169,399.385C371.169,400.181 371.262,400.651 371.448,400.796C371.635,400.941 372.208,401.014 373.169,401.014L373.169,401.951C372.784,401.92 372.352,401.895 371.871,401.88C371.391,401.864 370.861,401.855 370.285,401.855C369.303,401.855 368.413,401.864 367.618,401.88C366.822,401.895 366.131,401.92 365.544,401.951Z" style="fill:rgb(35,31,32);fill-rule:nonzero;"/>
        </g>
    </g>
</svg>
