<?xml version="1.0" encoding="utf-8"?>
<!-- Generator: Adobe Illustrator 18.1.1, SVG Export Plug-In . SVG Version: 6.00 Build 0)  -->
<svg version="1.1" id="レイヤー_1" xmlns="http://www.w3.org/2000/svg" xmlns:xlink="http://www.w3.org/1999/xlink" x="0px"
	 y="0px" viewBox="0 0 156 32" enable-background="new 0 0 156 32" xml:space="preserve">
<g>
	<path fill="#FFFFFF" d="M45.447,19.807l0.026,0.532l-0.084-0.025c-0.616-0.183-1.117-0.389-1.49-0.611
		c-0.932-0.556-2.142-1.619-2.607-3.524c-0.305-1.244-1.111-3.417-1.645-4.853l-0.388-1.059c-0.111-0.313-0.294-0.664-0.545-1.045
		l-0.244-0.37l-6.054,2.844c-0.318-0.267-0.58-0.49-0.721-0.611c-0.003-0.002-0.158-0.127-0.403-0.298l6.153-3.13L36.81,7.163
		c-0.276-0.214-0.553-0.399-0.822-0.549c-0.513-0.285-1.402-0.737-2.642-1.344L33.1,5.15l-6.011,3.487
		c-0.501-0.259-0.94-0.503-1.199-0.688l5.679-3.538l-0.846-0.402c-0.177-0.084-0.301-0.142-0.33-0.155
		c-0.065-0.044-0.521-0.334-1.294-0.334c-0.438,0-0.899,0.093-1.369,0.275c-1.572,0.609-3.005,1.056-3.024,1.062
		c-0.11,0.036-1.087,0.358-1.452,0.843c-0.403,0.535-1.598,1.905-2.054,2.157c-0.449,0.248-0.941,0.71-1.031,1.182
		c-0.054,0.282,0.052,0.481,0.15,0.599c0.409,0.495,1.209,0.519,1.37,0.519l0.122,0.004c0.171,0,0.672-0.05,1.085-0.507
		c0,0.101-0.005,0.2,0.006,0.303c0.027,0.238,0.104,0.576,0.287,0.943l-2.383,1.383l-0.063,0.179
		c-0.107,0.305-0.18,0.519-0.188,0.543l-0.023,0.116c-0.022,0.253-0.054,1.109,0.429,1.525c0.166,0.143,0.373,0.215,0.615,0.215
		c0.125,0,0.261-0.02,0.405-0.058c0.637-0.169,1.066-0.397,1.361-0.611l-0.381,0.836l3.23-1.643
		c0.391,0.259,0.759,0.505,1.086,0.727l-1.165,0.548l-3.659,1.718l-0.073,0.199c-0.363,1-0.569,1.745-0.613,2.214
		c-0.015,0.162-0.013,0.299,0.008,0.414c0.117,0.696,0.412,1.169,0.833,1.332c0.103,0.039,0.213,0.058,0.329,0.058
		c0.248,0,0.516-0.097,0.829-0.308c0.055,0.318,0.223,1.044,0.641,1.38c0.149,0.12,0.329,0.168,0.595,0.176
		c0.539-0.061,1.201-0.555,1.649-1.231c0.294-0.443,0.73-1.328,0.483-2.361c0.45,0.105,1.553,0.458,2.094,1.465
		c0.648,1.202,3.386,5.08,5.021,5.843l0.986,0.488c1.434,0.73,3.399,1.73,6.148,2.236c0.067,0.025,0.29,0.108,0.579,0.217
		l-0.512,0.25l5.089,2.35l0.22-0.109c0.681-0.336,2.944-1.887,3.493-7.731c0.054-0.57,0.088-1.192,0.107-1.852l0.012-0.415
		L45.447,19.807z"/>
	<path fill="#FFAA00" d="M50.616,21.15c0.003-0.177-0.117-0.332-0.289-0.374l-4.655-1.123c-0.119-0.029-0.245,0.002-0.337,0.083
		c-0.089,0.078-0.135,0.193-0.127,0.311c-0.433-0.14-0.844-0.309-1.18-0.508c-0.892-0.532-2.049-1.55-2.495-3.373
		c-0.306-1.25-1.117-3.435-1.653-4.882l-0.386-1.053c-0.106-0.3-0.283-0.645-0.514-1.005l1.871-0.879
		c0.251-0.12,0.355-0.42,0.233-0.67l-0.717-1.464c-0.122-0.249-0.424-0.352-0.672-0.227l-2.461,1.252
		c-0.357-0.303-0.736-0.575-1.126-0.792c-0.522-0.29-1.344-0.706-2.199-1.128l4.063-2.358c0.24-0.14,0.319-0.448,0.175-0.687
		l-0.84-1.397c-0.144-0.238-0.454-0.314-0.69-0.168l-5.35,3.333c-0.419-0.199-0.706-0.335-0.77-0.365
		c-0.181-0.116-1.212-0.7-2.853-0.063c-1.569,0.608-2.993,1.051-3.007,1.056c-0.12,0.038-1.162,0.38-1.576,0.929
		c-0.429,0.57-1.586,1.874-1.978,2.091c-0.462,0.255-1.041,0.763-1.153,1.351c-0.006,0.034-0.011,0.068-0.014,0.101
		c-0.024,0.258,0.049,0.498,0.216,0.699c0.262,0.317,0.638,0.466,0.963,0.538L1.243,22.746c-0.238,0.145-0.314,0.456-0.17,0.696
		l0.156,0.258c0.144,0.238,0.453,0.317,0.694,0.177l18.362-10.653c-0.019,0.34-0.008,1.196,0.518,1.65
		c0.175,0.151,0.465,0.3,0.899,0.267L2.548,24.883c-0.25,0.125-0.352,0.427-0.229,0.679l0.132,0.271
		c0.123,0.25,0.424,0.355,0.676,0.236l18.786-8.826c-0.194,0.604-0.341,1.171-0.381,1.602c-0.016,0.172-0.016,0.321,0.005,0.444
		c0.133,0.786,0.483,1.326,0.985,1.518c0.246,0.095,0.616,0.125,1.082-0.095c0.102,0.397,0.295,0.899,0.652,1.187
		c0.225,0.181,0.494,0.26,0.775,0.228c0.606-0.068,1.339-0.606,1.825-1.339c0.33-0.5,0.524-1.04,0.576-1.586
		c0.018-0.189,0.015-0.379-0.001-0.569c0.492,0.171,1.203,0.528,1.586,1.239c0.742,1.378,3.463,5.17,5.144,5.954l0.968,0.48
		c1.442,0.733,3.416,1.736,6.196,2.255c0.013,0.005,0.028,0.011,0.042,0.016c-0.024,0.045-0.043,0.093-0.048,0.146
		c-0.013,0.158,0.074,0.308,0.218,0.375l4.836,2.232c0.083,0.039,0.177,0.045,0.265,0.019C46.791,31.305,50.456,30.127,50.616,21.15
		z M35.741,7.106c0.257,0.143,0.511,0.314,0.757,0.506l-5.442,2.769c-0.21-0.132-0.445-0.27-0.698-0.394l-0.791-0.375
		c-0.473-0.223-1.085-0.509-1.678-0.801l5.234-3.036C34.128,6.266,35.147,6.775,35.741,7.106z M20.674,9.18
		c0.049-0.256,0.383-0.613,0.776-0.831c0.614-0.339,1.934-1.923,2.216-2.297c0.203-0.269,0.843-0.549,1.199-0.663
		c0.012-0.003,1.459-0.454,3.053-1.072c1.371-0.531,2.157-0.017,2.19,0.005c0.016,0.011,0.037,0.023,0.054,0.031
		c0.008,0.003,0.135,0.063,0.344,0.162l-4.9,3.053c-0.846-0.316-1.85,0.008-2.41,0.588c-0.223,0.23-0.382,0.546-0.471,0.902
		c-0.327,0.653-0.878,0.64-0.945,0.635c-0.005,0-0.01,0.002-0.017,0.001c-0.014-0.001-0.03-0.004-0.045-0.003
		c-0.198,0.005-0.762-0.043-1.003-0.334C20.673,9.306,20.66,9.254,20.674,9.18z M21.297,14.302c-0.266-0.229-0.273-0.85-0.253-1.093
		c0.008-0.023,0.08-0.233,0.185-0.533l2.019-1.172c0.156,0.215,0.34,0.415,0.551,0.598c-0.086,0.763-0.343,1.304-0.346,1.31
		c-0.001,0.001,0,0.001-0.001,0.001c0,0,0,0,0,0.001c-0.003,0.006-0.322,0.599-1.6,0.938C21.472,14.453,21.34,14.34,21.297,14.302z
		 M24.133,13.739c0,0,0.001-0.002,0.001-0.002c0.033-0.067,0.231-0.5,0.352-1.136c0.334,0.217,0.657,0.427,0.965,0.63l-1.416,0.721
		C24.069,13.88,24.102,13.807,24.133,13.739z M23.618,19.822c-0.33,0.257-0.623,0.358-0.826,0.28
		c-0.235-0.091-0.426-0.441-0.51-0.939c-0.013-0.074-0.013-0.169-0.002-0.281c0.044-0.469,0.278-1.241,0.585-2.087l2.373-1.115
		c-0.216,0.511-0.406,1.137-0.433,1.79C24.762,18.514,23.773,19.65,23.618,19.822z M41.561,27.845
		c-0.02-0.007-0.042-0.013-0.063-0.017c-2.693-0.497-4.622-1.478-6.029-2.193l-0.991-0.491c-1.444-0.674-4.074-4.284-4.798-5.627
		c-0.636-1.182-1.894-1.595-2.428-1.721c-0.105-0.355-0.322-1.016-0.584-1.363c-0.126-0.166-0.363-0.199-0.529-0.074
		c-0.166,0.126-0.2,0.363-0.075,0.529c0.195,0.258,0.423,0.951,0.522,1.327c0,0.002,0.001,0.003,0.002,0.004
		c0.001,0.003,0.001,0.006,0.002,0.009c0.286,0.956-0.106,1.755-0.364,2.145c-0.405,0.611-0.949,0.968-1.279,1.005
		c-0.083,0.009-0.147-0.01-0.217-0.066c-0.242-0.194-0.398-0.714-0.461-1.086c0.336-0.391,1.242-1.551,1.292-2.723
		c0.042-1.013,0.574-2.007,0.808-2.352l1.146-0.539c0.814,0.558,1.355,0.952,1.503,1.102l0.251,0.238
		c0.535,0.496,1.65,1.529,1.784,2.599c0.189,1.505,1.966,4.966,4.001,5.935c0.189,0.09,0.414,0.01,0.503-0.179
		c0.09-0.189,0.01-0.414-0.178-0.503c-1.785-0.85-3.41-4.02-3.577-5.347c-0.168-1.342-1.373-2.458-2.02-3.058l-0.228-0.217
		c-0.52-0.523-3.867-2.703-4.882-3.359c-0.981-0.635-1.21-1.448-1.259-1.877c-0.058-0.503,0.07-0.999,0.326-1.263
		c0.384-0.397,1.241-0.714,1.853-0.275c0.699,0.5,2.478,1.335,3.656,1.888l0.777,0.369c0.724,0.358,1.342,0.855,1.348,0.86
		c0.086,0.074,2.319,1.986,3.112,2.51c1.066,0.705,1.966,0.26,2.293-0.073c0.144-0.148,0.142-0.382-0.004-0.529
		c-0.145-0.147-0.384-0.147-0.532-0.003c-0.054,0.053-0.551,0.496-1.34-0.025c-0.378-0.25-1.137-0.863-1.803-1.415l5.193-2.44
		c0.221,0.335,0.392,0.657,0.489,0.933l0.391,1.065c0.53,1.43,1.332,3.591,1.627,4.798c0.507,2.078,1.826,3.236,2.842,3.842
		c0.46,0.274,1.029,0.49,1.606,0.662c0.037,1.753-0.181,5.925-2.945,7.274C41.933,27.983,41.641,27.874,41.561,27.845z
		 M46.536,30.575c-0.235-0.109-2.818-1.301-3.888-1.795c2.35-1.147,3.097-3.914,3.299-6.05c0.086-0.923,0.074-1.722,0.05-2.221
		c0.741,0.179,3.389,0.817,3.853,0.929c-0.018,0.647-0.051,1.257-0.104,1.817C49.213,28.919,47.06,30.316,46.536,30.575z"/>
	<g>
		<path fill="#040000" d="M75.138,3.693c-0.199-0.153-0.444-0.236-0.694-0.236H74.37h-5.292c-0.251,0-0.496,0.083-0.695,0.236
			l-9.186,7.062c-0.169,0.13-0.201,0.373-0.071,0.543l1.181,1.536c0.125,0.162,0.354,0.217,0.516,0.092
			c0.433-0.333,1.326-1.02,2.384-1.833v6.579v3.239v4.778c0,0.209-0.161,0.388-0.37,0.388c-0.25,0-0.459,0-0.605,0
			c-0.118,0-0.231,0.076-0.231,0.193v2.324c0,0.107,0.087,0.194,0.194,0.194h5.23c0.128,0,0.255-0.023,0.376-0.066l3.126-1.14
			c0.1-0.037,0.152-0.148,0.115-0.249l-0.797-2.183c-0.036-0.099-0.143-0.154-0.242-0.118c-0.485,0.177-1.855,0.677-2.529,0.923
			c-0.243,0.089-0.502,0.123-0.761,0.123c-0.119,0-0.258,0-0.411,0c-0.212,0-0.382-0.175-0.382-0.388v-4.39
			c0-0.214,0.173-0.388,0.387-0.388h4.627c0.244,0,0.476,0.113,0.626,0.305l5.83,7.42c0.075,0.096,0.191,0.152,0.313,0.152h4.895
			c0.107,0,0.194-0.086,0.194-0.194v-2.324c0-0.117-0.111-0.193-0.227-0.193c-0.622,0-2.375,0-3.354,0
			c-0.232,0-0.458-0.094-0.601-0.277c-0.096-0.123-0.214-0.272-0.347-0.442c-0.124-0.159-0.085-0.398,0.102-0.473l1.536-0.621
			c0.099-0.04,0.147-0.153,0.107-0.252l-0.87-2.155c-0.04-0.1-0.153-0.147-0.252-0.107l-2.265,0.915
			c-0.212,0.086-0.456,0.022-0.597-0.157c-0.349-0.444-0.698-0.888-1.028-1.309c-0.095-0.12,0.009-0.287,0.162-0.287h4.963
			c0.107,0,0.194-0.086,0.194-0.194v-9.625c1.019,0.783,1.885,1.449,2.334,1.795c0.176,0.135,0.431,0.123,0.566-0.053l1.181-1.536
			c0.131-0.17,0.099-0.413-0.071-0.543L75.138,3.693z M77.602,17.792c0,0.217-0.16,0.407-0.376,0.407c-2.29,0-8.567,0-10.896,0
			c-0.221,0-0.41-0.17-0.41-0.391c0-0.045,0-0.091,0-0.137c0-0.118,0-0.238,0-0.36c0-0.211,0.177-0.376,0.387-0.376h10.907
			c0.223,0,0.388,0.196,0.388,0.418C77.602,17.505,77.602,17.651,77.602,17.792z M77.602,13.821c0,0.219-0.169,0.403-0.388,0.403
			H66.307c-0.218,0-0.387-0.184-0.387-0.403c0-0.169,0-0.333,0-0.491c0-0.206,0.17-0.369,0.376-0.369c2.289,0,8.566,0,10.895,0
			c0.216,0,0.411,0.153,0.411,0.369C77.602,13.488,77.602,13.652,77.602,13.821z M78.957,10.249h-5.454
			c-0.214,0-0.388-0.174-0.388-0.387V9.323c0-0.107-0.087-0.194-0.194-0.194h-2.324c-0.107,0-0.194,0.087-0.194,0.194v0.539
			c0,0.214-0.173,0.387-0.387,0.387h-5.713c2.089-1.606,4.407-3.388,5.126-3.941c0.111-0.085,0.243-0.139,0.382-0.139
			c0.845,0,2.998,0,3.869,0c0.133,0,0.266,0.03,0.371,0.111c0.672,0.517,3.037,2.335,5.164,3.97H78.957z"/>
		<path fill="#040000" d="M98.738,12.466h1.937c0.214,0,0.387-0.173,0.387-0.387v-2.034c0-0.214-0.174-0.387-0.387-0.387h-1.937
			c-0.214,0-0.387,0.173-0.387,0.387v2.034C98.35,12.292,98.523,12.466,98.738,12.466z"/>
		<path fill="#040000" d="M102.708,12.466h1.937c0.214,0,0.387-0.173,0.387-0.387v-2.034c0-0.214-0.173-0.387-0.387-0.387h-1.937
			c-0.214,0-0.387,0.173-0.387,0.387v2.034C102.321,12.292,102.494,12.466,102.708,12.466z"/>
		<path fill="#040000" d="M148.706,7.624h1.937c0.214,0,0.387-0.174,0.387-0.387V5.203c0-0.214-0.173-0.387-0.387-0.387h-1.937
			c-0.214,0-0.388,0.173-0.388,0.387v2.034C148.318,7.45,148.492,7.624,148.706,7.624z"/>
		<path fill="#040000" d="M154.613,4.816h-1.937c-0.214,0-0.387,0.173-0.387,0.387v2.034c0,0.214,0.173,0.387,0.387,0.387h1.937
			c0.214,0,0.387-0.174,0.387-0.387V5.203C155,4.989,154.827,4.816,154.613,4.816z"/>
		<path fill="#040000" d="M129.74,10.203h-1.356h-14.429c-0.107,0-0.194,0.087-0.194,0.194v16.172c0,0.107,0.087,0.194,0.194,0.194
			h15.785c0.107,0,0.194-0.087,0.194-0.194V10.397C129.934,10.29,129.847,10.203,129.74,10.203z M126.835,23.249
			c0,0.218-0.156,0.415-0.374,0.415c-2.188,0-6.979,0-9.194,0c-0.217,0-0.406-0.163-0.406-0.382c0-2.24,0-7.298,0-9.566
			c0-0.227,0.18-0.415,0.406-0.415c2.214,0,7.006,0,9.194,0c0.209,0,0.374,0.173,0.374,0.381
			C126.835,15.923,126.835,20.981,126.835,23.249z"/>
		<path fill="#040000" d="M152.08,10.114h-1.162h-9.684c-0.107,0-0.194-0.087-0.194-0.194V9.519c0-0.214-0.174-0.388-0.387-0.388
			h-2.324c-0.216,0-0.387,0.178-0.387,0.393c0,1.114,0,3.322,0,4.288c0,0.116-0.045,0.226-0.112,0.319
			c-0.353,0.494-0.992,1.389-1.323,1.853c-0.121,0.169-0.067,0.402,0.102,0.522l1.891,1.351c0.174,0.124,0.416,0.084,0.54-0.09
			l1.775-2.485c0.146-0.205,0.225-0.451,0.225-0.702v-1.175c0-0.116,0.109-0.193,0.225-0.193c2.307,0,6.244,0,7.945,0
			c0.099,0,0.157,0.1,0.157,0.199c0,2.006,0,6.118,0,7.373c0,0.131-0.048,0.259-0.14,0.352c-0.985,0.985-4.773,4.773-5.818,5.818
			c-0.15,0.15-0.145,0.393,0.005,0.543l1.644,1.644c0.151,0.151,0.396,0.151,0.548,0l6.588-6.588
			c0.175-0.175,0.274-0.414,0.274-0.662V10.501C152.467,10.288,152.294,10.114,152.08,10.114z"/>
		<path fill="#040000" d="M96.554,14.095c-0.174-0.175-0.413-0.274-0.661-0.274h-0.254h-6.294c-0.214,0-0.387,0.173-0.387,0.387
			v5.907c0,0.214,0.173,0.387,0.387,0.387h2.324c0.214,0,0.387-0.175,0.387-0.389c0-0.63,0-1.911,0-2.982
			c0-0.122,0.108-0.211,0.23-0.211c1.033,0,1.925,0,2.532,0c0.119,0,0.231,0.051,0.315,0.135c1.26,1.259,8.258,8.257,9.773,9.773
			c0.155,0.155,0.407,0.171,0.563,0.016l1.644-1.643c0.151-0.151,0.151-0.397,0-0.548L96.554,14.095z"/>
	</g>
</g>
</svg>
